<svg width="34" height="27" viewBox="0 0 34 27" fill="none" xmlns="http://www.w3.org/2000/svg">
<path d="M5.19411 0.529541C5.19319 0.529541 5.19216 0.529541 5.19125 0.529541C4.87011 0.529541 4.56806 0.654729 4.33997 0.882238C4.10938 1.11226 3.98236 1.41854 3.98236 1.7446V19.9643C3.98236 20.6324 4.52804 21.1773 5.19891 21.179C8.02712 21.1857 12.7655 21.7752 16.0343 25.196V6.12857C16.0343 5.90209 15.9765 5.68933 15.8673 5.51326C13.1844 1.19263 8.02872 0.536172 5.19411 0.529541Z" fill="#005CFB"/>
<path d="M29.9726 19.9641V1.74436C29.9726 1.4183 29.8456 1.11202 29.615 0.881994C29.3869 0.654484 29.0847 0.529297 28.7638 0.529297C28.7628 0.529297 28.7618 0.529297 28.7609 0.529297C25.9264 0.536042 20.7707 1.19251 18.0877 5.51313C17.9785 5.6892 17.9208 5.90196 17.9208 6.12844V25.1957C21.1896 21.7749 25.928 21.1855 28.7562 21.1787C29.4269 21.177 29.9726 20.6321 29.9726 19.9641Z" fill="#005CFB"/>
<path d="M32.7401 4.73145H31.8591V19.9644C31.8591 21.6703 30.4692 23.0613 28.7607 23.0655C26.3618 23.0713 22.4063 23.5403 19.605 26.1917C24.4499 25.0054 29.5573 25.7766 32.4681 26.4399C32.8315 26.5227 33.2071 26.4371 33.4983 26.2051C33.7885 25.9735 33.9549 25.6275 33.9549 25.256V5.94628C33.955 5.27644 33.4099 4.73145 32.7401 4.73145Z" fill="#FFAB00"/>
<path d="M2.09583 19.9644V4.73145H1.21483C0.545109 4.73145 0 5.27644 0 5.94628V25.2557C0 25.6273 0.166459 25.9732 0.45662 26.2047C0.747581 26.4367 1.1228 26.5225 1.48682 26.4395C4.39757 25.7761 9.50511 25.0051 14.3498 26.1913C11.5486 23.5401 7.59311 23.0711 5.1942 23.0654C3.48582 23.0613 2.09583 21.6703 2.09583 19.9644Z" fill="#FFAB00"/>
</svg>
