<svg width="44" height="45" viewBox="0 0 44 45" fill="none" xmlns="http://www.w3.org/2000/svg">
<rect x="0.180969" y="0.590576" width="43.819" height="43.819" rx="21.9095" fill="white"/>
<path d="M28.233 24.0452L27.3855 22.6351C27.198 22.3276 27.033 21.7351 27.033 21.3751V19.9726C27.033 17.2501 24.8205 15.0376 22.1055 15.0376C19.3829 15.0451 17.1704 17.2501 17.1704 19.9726V21.3676C17.1704 21.7276 17.0054 22.3201 16.8254 22.6276L15.9779 24.0377C15.6554 24.5852 15.5804 25.2077 15.7829 25.7477C15.9854 26.2952 16.4429 26.7302 17.0429 26.9252C17.8529 27.1952 18.6704 27.3902 19.5029 27.5327C19.5854 27.5477 19.6679 27.5552 19.7505 27.5702C19.8555 27.5852 19.968 27.6002 20.0805 27.6152C20.2755 27.6452 20.4705 27.6677 20.673 27.6827C21.1455 27.7277 21.6255 27.7502 22.1055 27.7502C22.578 27.7502 23.0505 27.7277 23.5155 27.6827C23.688 27.6677 23.8605 27.6527 24.0255 27.6302C24.1605 27.6152 24.2955 27.6002 24.4305 27.5777C24.513 27.5702 24.5955 27.5552 24.678 27.5402C25.518 27.4052 26.3505 27.1952 27.1605 26.9252C27.738 26.7302 28.1805 26.2952 28.3905 25.7402C28.6005 25.1777 28.5405 24.5627 28.233 24.0452ZM22.653 21.0001C22.653 21.3151 22.398 21.5701 22.083 21.5701C21.768 21.5701 21.513 21.3151 21.513 21.0001V18.6751C21.513 18.3601 21.768 18.1051 22.083 18.1051C22.398 18.1051 22.653 18.3601 22.653 18.6751V21.0001Z" fill="black"/>
<path d="M24.213 28.5075C23.898 29.3775 23.0655 30 22.0905 30C21.498 30 20.913 29.76 20.5005 29.3325C20.2605 29.1075 20.0805 28.8075 19.9755 28.5C20.073 28.515 20.1705 28.5225 20.2755 28.5375C20.448 28.56 20.628 28.5825 20.808 28.5975C21.2355 28.635 21.6705 28.6575 22.1055 28.6575C22.533 28.6575 22.9605 28.635 23.3805 28.5975C23.538 28.5825 23.6955 28.575 23.8455 28.5525C23.9655 28.5375 24.0855 28.5225 24.213 28.5075Z" fill="black"/>
<rect x="0.435731" y="0.845338" width="43.3095" height="43.3095" rx="21.6548" stroke="black" stroke-opacity="0.1" stroke-width="0.509524"/>
</svg>
