<svg width="44" height="45" viewBox="0 0 44 45" fill="none" xmlns="http://www.w3.org/2000/svg">
<rect y="0.590576" width="43.819" height="43.819" rx="21.9095" fill="white"/>
<path d="M28.6597 30.0005H15.1593C14.8518 30.0005 14.5968 29.7455 14.5968 29.438C14.5968 29.1305 14.8518 28.8755 15.1593 28.8755H28.6597C28.9672 28.8755 29.2222 29.1305 29.2222 29.438C29.2222 29.7455 28.9672 30.0005 28.6597 30.0005Z" fill="black"/>
<path d="M27.1747 16.11C25.7196 14.655 24.2946 14.6175 22.8021 16.11L21.8945 17.0175C21.8195 17.0925 21.7895 17.2125 21.8195 17.3176C22.3896 19.3051 23.9796 20.8951 25.9671 21.4652C25.9971 21.4727 26.0271 21.4802 26.0571 21.4802C26.1396 21.4802 26.2146 21.4502 26.2746 21.3901L27.1747 20.4826C27.9172 19.7476 28.2772 19.0351 28.2772 18.3151C28.2847 17.5726 27.9247 16.8525 27.1747 16.11Z" fill="black"/>
<path d="M24.6171 22.1477C24.3996 22.0427 24.1896 21.9377 23.9871 21.8177C23.8221 21.7202 23.6646 21.6152 23.5071 21.5027C23.3796 21.4202 23.2296 21.3002 23.0871 21.1802C23.0721 21.1727 23.0196 21.1277 22.9596 21.0677C22.7121 20.8577 22.4346 20.5877 22.187 20.2877C22.1645 20.2727 22.127 20.2201 22.0745 20.1526C21.9995 20.0626 21.872 19.9126 21.7595 19.7401C21.6695 19.6276 21.5645 19.4626 21.467 19.2976C21.347 19.0951 21.242 18.8926 21.137 18.6826C21.1211 18.6486 21.1058 18.6147 21.0909 18.581C20.9802 18.331 20.6542 18.2579 20.4609 18.4513L16.1644 22.7477C16.0669 22.8452 15.9769 23.0327 15.9544 23.1602L15.5494 26.0328C15.4744 26.5428 15.6169 27.0228 15.9319 27.3453C16.2019 27.6078 16.5769 27.7503 16.9819 27.7503C17.0719 27.7503 17.1619 27.7428 17.2519 27.7278L20.132 27.3228C20.267 27.3003 20.4545 27.2103 20.5445 27.1128L24.8356 22.8217C25.0303 22.6271 24.9568 22.293 24.7036 22.1849C24.6751 22.1727 24.6463 22.1603 24.6171 22.1477Z" fill="black"/>
<rect x="0.254762" y="0.845338" width="43.3095" height="43.3095" rx="21.6548" stroke="black" stroke-opacity="0.1" stroke-width="0.509524"/>
</svg>
