<svg width="28" height="27" viewBox="0 0 28 27" fill="none" xmlns="http://www.w3.org/2000/svg">
<path d="M14 0.166687C6.65335 0.166687 0.666687 6.15335 0.666687 13.5C0.666687 20.8467 6.65335 26.8334 14 26.8334C21.3467 26.8334 27.3334 20.8467 27.3334 13.5C27.3334 6.15335 21.3467 0.166687 14 0.166687ZM17.72 14.2067L13.0134 18.9134C12.8134 19.1134 12.56 19.2067 12.3067 19.2067C12.0534 19.2067 11.8 19.1134 11.6 18.9134C11.2134 18.5267 11.2134 17.8867 11.6 17.5L15.6 13.5L11.6 9.50002C11.2134 9.11335 11.2134 8.47335 11.6 8.08669C11.9867 7.70002 12.6267 7.70002 13.0134 8.08669L17.72 12.7934C18.12 13.18 18.12 13.82 17.72 14.2067Z" fill="#005CFB"/>
</svg>
