<svg width="28" height="27" viewBox="0 0 28 27" fill="none" xmlns="http://www.w3.org/2000/svg">
<path d="M14 0.166626C6.65335 0.166626 0.666687 6.15329 0.666687 13.5C0.666687 20.8466 6.65335 26.8333 14 26.8333C21.3467 26.8333 27.3334 20.8466 27.3334 13.5C27.3334 6.15329 21.3467 0.166626 14 0.166626ZM16.3867 17.5C16.7734 17.8866 16.7734 18.5266 16.3867 18.9133C16.1867 19.1133 15.9334 19.2066 15.68 19.2066C15.4267 19.2066 15.1734 19.1133 14.9734 18.9133L10.2667 14.2066C9.88002 13.82 9.88002 13.18 10.2667 12.7933L14.9734 8.08663C15.36 7.69996 16 7.69996 16.3867 8.08663C16.7734 8.47329 16.7734 9.11329 16.3867 9.49996L12.3867 13.5L16.3867 17.5Z" fill="#005CFB"/>
</svg>
